<?xml version="1.0" encoding="utf-8"?>
<svg fill="none" height="16" viewBox="0 0 16 16" width="16" xmlns="http://www.w3.org/2000/svg">
<path d="M8 15.2067C7.54 15.2067 7.10666 14.9733 6.79999 14.5667L5.79999 13.2333C5.77999 13.2067 5.7 13.1733 5.66666 13.1667H5.33333C2.55333 13.1667 0.833328 12.4133 0.833328 8.66667V5.33334C0.833328 2.38667 2.38666 0.833336 5.33333 0.833336H10.6667C13.6133 0.833336 15.1667 2.38667 15.1667 5.33334V8.66667C15.1667 11.6133 13.6133 13.1667 10.6667 13.1667H10.3333C10.28 13.1667 10.2333 13.1933 10.2 13.2333L9.2 14.5667C8.89333 14.9733 8.46 15.2067 8 15.2067ZM5.33333 1.83334C2.94666 1.83334 1.83333 2.94667 1.83333 5.33334V8.66667C1.83333 11.68 2.86666 12.1667 5.33333 12.1667H5.66666C6.00666 12.1667 6.39333 12.36 6.59999 12.6333L7.59999 13.9667C7.83333 14.2733 8.16666 14.2733 8.4 13.9667L9.4 12.6333C9.62 12.34 9.96666 12.1667 10.3333 12.1667H10.6667C13.0533 12.1667 14.1667 11.0533 14.1667 8.66667V5.33334C14.1667 2.94667 13.0533 1.83334 10.6667 1.83334H5.33333Z" fill="currentColor"/>
<path d="M7.99999 8C7.62666 8 7.33333 7.7 7.33333 7.33333C7.33333 6.96666 7.63333 6.66666 7.99999 6.66666C8.36666 6.66666 8.66666 6.96666 8.66666 7.33333C8.66666 7.7 8.37333 8 7.99999 8Z" fill="currentColor"/>
<path d="M10.6667 8C10.2933 8 10 7.7 10 7.33333C10 6.96666 10.3 6.66666 10.6667 6.66666C11.0333 6.66666 11.3333 6.96666 11.3333 7.33333C11.3333 7.7 11.04 8 10.6667 8Z" fill="currentColor"/>
<path d="M5.33334 8C4.96001 8 4.66667 7.7 4.66667 7.33333C4.66667 6.96666 4.96667 6.66666 5.33334 6.66666C5.70001 6.66666 6.00001 6.96666 6.00001 7.33333C6.00001 7.7 5.70667 8 5.33334 8Z" fill="currentColor"/>
</svg>